<svg width="45" height="45" viewBox="0 0 45 45" fill="none" xmlns="http://www.w3.org/2000/svg">
<path fill-rule="evenodd" clip-rule="evenodd" d="M27.7395 0.267548L23.1081 3.27143L22.261 12.9076L28.7188 5.69025L27.7395 0.267548Z" fill="white"/>
<path fill-rule="evenodd" clip-rule="evenodd" d="M15.3757 5.73679L15.9139 15.3976L20.4495 18.5365L21.6027 13.1425L15.3757 5.73679Z" fill="white"/>
<path fill-rule="evenodd" clip-rule="evenodd" d="M22.5634 13.0938L23.5433 18.5168L28.1748 15.5126L29.0215 5.87674L22.5634 13.0938Z" fill="white"/>
<path fill-rule="evenodd" clip-rule="evenodd" d="M28.8952 16.1451L25.7584 20.6662L31.1522 21.8178L38.5547 15.6118L28.8952 16.1451Z" fill="white"/>
<path fill-rule="evenodd" clip-rule="evenodd" d="M31.2036 22.8088L25.7816 23.7897L28.7842 28.4236L38.4194 29.2694L31.2036 22.8088Z" fill="white"/>
<path fill-rule="evenodd" clip-rule="evenodd" d="M28.1513 29.1439L23.6303 26.0075L22.4774 31.4009L28.684 38.8029L28.1513 29.1439Z" fill="white"/>
<path fill-rule="evenodd" clip-rule="evenodd" d="M20.5406 26.0627L15.9058 29.0653L15.0603 38.7012L21.5215 31.4854L20.5406 26.0627Z" fill="white"/>
<path fill-rule="evenodd" clip-rule="evenodd" d="M12.8946 22.725L5.49353 28.9309L15.1522 28.4001L18.288 23.8778L12.8946 22.725Z" fill="white"/>
<path fill-rule="evenodd" clip-rule="evenodd" d="M15.2641 16.1208L5.62854 15.2752L12.844 21.7383L18.2667 20.7565L15.2641 16.1208Z" fill="white"/>
<path fill-rule="evenodd" clip-rule="evenodd" d="M5.44394 15.5724L0.0218506 16.5532L3.02481 21.189L12.6591 22.0354L5.44394 15.5724Z" fill="white"/>
<path fill-rule="evenodd" clip-rule="evenodd" d="M15.0329 5.81324L10.506 2.67126L9.35498 8.07023L15.5702 15.483L15.0329 5.81324Z" fill="white"/>
<path fill-rule="evenodd" clip-rule="evenodd" d="M36.2216 9.60931L28.8187 15.815L38.4789 15.2829L41.616 10.7615L36.2216 9.60931Z" fill="white"/>
<path fill-rule="evenodd" clip-rule="evenodd" d="M41.0229 23.3547L31.3882 22.5083L38.6034 28.9707L44.0261 27.9898L41.0229 23.3547Z" fill="white"/>
<path fill-rule="evenodd" clip-rule="evenodd" d="M28.4806 29.0669L29.0126 38.7259L33.5349 41.8623L34.6869 36.4689L28.4806 29.0669Z" fill="white"/>
<path fill-rule="evenodd" clip-rule="evenodd" d="M15.3246 38.8522L16.3057 44.2752L20.9409 41.272L21.787 31.6358L15.3246 38.8522Z" fill="white"/>
<path fill-rule="evenodd" clip-rule="evenodd" d="M5.56904 29.2608L2.43262 33.7831L7.82727 34.9362L15.2289 28.7296L5.56904 29.2608Z" fill="white"/>
<path fill-rule="evenodd" clip-rule="evenodd" d="M8.06409 35.0848L14.7574 38.6226L15.5699 28.8696L8.06409 35.0848Z" fill="white"/>
<path fill-rule="evenodd" clip-rule="evenodd" d="M3.0929 21.4608L5.324 28.6951L12.795 22.3736L3.0929 21.4608Z" fill="white"/>
<path fill-rule="evenodd" clip-rule="evenodd" d="M9.21136 8.31006L5.68469 14.9929L15.43 15.8165L9.21136 8.31006Z" fill="white"/>
<path fill-rule="evenodd" clip-rule="evenodd" d="M15.609 5.5651L21.9229 13.0438L22.8303 3.33524L15.609 5.5651Z" fill="white"/>
<path fill-rule="evenodd" clip-rule="evenodd" d="M29.3051 5.9313L28.4815 15.6806L35.9858 9.45921L29.3051 5.9313Z" fill="white"/>
<path fill-rule="evenodd" clip-rule="evenodd" d="M38.7316 15.8575L31.2532 22.1711L40.9612 23.0776L38.7316 15.8575Z" fill="white"/>
<path fill-rule="evenodd" clip-rule="evenodd" d="M28.6153 28.7309L34.8364 36.2346L38.3661 29.5533L28.6153 28.7309Z" fill="white"/>
<path fill-rule="evenodd" clip-rule="evenodd" d="M22.1254 31.5008L21.2189 41.2082L28.4402 38.9792L22.1254 31.5008Z" fill="white"/>
</svg>
