<?xml version="1.0" encoding="UTF-8"?>
<svg width="148px" height="45px" viewBox="0 0 148 45" version="1.1" xmlns="http://www.w3.org/2000/svg" xmlns:xlink="http://www.w3.org/1999/xlink">
    <!-- Generator: sketchtool 53 (72520) - https://sketchapp.com -->
    <title>1C0B79F8-3221-416A-9389-55C1C9AD439F</title>
    <desc>Created with sketchtool.</desc>
    <g id="Page-1" stroke="none" stroke-width="1" fill="none" fill-rule="evenodd">
        <g id="01.00__Landing" transform="translate(-24.000000, -16.000000)" fill="#FFFFFF">
            <g id="02__assets-/-logos-/-eosdac" transform="translate(24.000000, 16.000000)">
                <g id="signet-white">
                    <polygon id="Shape_2_copy_9" points="27.7395726 0.267559523 23.108142 3.27143919 22.2610756 12.9075893 28.7188775 5.69026359 27.7395726 0.267559523"></polygon>
                    <polygon id="Shape_2" points="15.3757334 5.73680909 15.9139349 15.397619 20.4495004 18.5365114 21.6026573 13.1424745 15.3757334 5.73680909"></polygon>
                    <polygon id="Shape_2_copy" points="22.5634672 13.0937712 23.5433886 18.5167835 28.1748192 15.5125956 29.0215773 5.87675381 22.5634672 13.0937712"></polygon>
                    <polygon id="Shape_2_copy_2" points="28.8951955 16.1451211 25.7584608 20.6661989 31.1521896 21.8178146 38.5547724 15.6118516"></polygon>
                    <polygon id="Shape_2_copy_3" points="31.203667 22.8088329 25.7815794 23.7896789 28.7842261 28.4235756 38.4194514 29.2694089 31.203667 22.8088329"></polygon>
                    <polygon id="Shape_2_copy_4" points="28.1513924 29.1439519 23.6303146 26.0075255 22.4774659 31.4009459 28.6840454 38.8029123 28.1513924 29.1439519"></polygon>
                    <polygon id="Shape_2_copy_5" points="20.5407419 26.0627019 15.9059205 29.0653486 15.0603954 38.7011904 21.521588 31.485406 20.5407419 26.0627019"></polygon>
                    <polygon id="Shape_2_copy_6" points="12.8946428 22.7249893 5.49360118 28.9309523 15.1522534 28.4001487 18.2880633 23.877838"></polygon>
                    <polygon id="Shape_2_copy_7" points="15.2641475 16.1207695 5.62861393 15.2752444 12.8440901 21.7382865 18.2667942 20.7565157 15.2641475 16.1207695"></polygon>
                    <polygon id="Shape_2_copy_15" points="5.4439732 15.5723958 0.0218856292 16.5532419 3.02484055 21.188988 12.6591411 22.0354379 5.4439732 15.5723958"></polygon>
                    <polygon id="Shape_2_copy_8" points="15.0329613 5.81325466 10.5060268 2.67127976 9.35502761 8.07024871 15.5702381 15.4830038"></polygon>
                    <polygon id="Shape_2_copy_10" points="36.2216411 9.60933246 28.8187499 15.8149872 38.4789434 15.2829506 41.6159863 10.7615646 36.2216411 9.60933246"></polygon>
                    <polygon id="Shape_2_copy_11" points="41.0229166 23.3547406 31.3883078 22.5082908 38.6034757 28.9707163 44.0261797 27.9898703"></polygon>
                    <polygon id="Shape_2_copy_12" points="28.4806016 29.0668898 29.0126381 38.7258503 33.5349489 41.8622767 34.6868728 36.4688562 28.4806016 29.0668898"></polygon>
                    <polygon id="Shape_2_copy_13" points="15.3245642 38.8522321 16.3057185 44.2752444 20.9408482 41.2719812 21.7869897 31.6358311"></polygon>
                    <polygon id="Shape_2_copy_14" points="5.56912201 29.260778 2.43269557 33.7830888 7.82734905 34.9362457 15.2290072 28.7296662"></polygon>
                    <polygon id="Shape_2_copy_16" points="8.06408374 35.0848213 14.7573873 38.6225871 15.5699298 28.8696109"></polygon>
                    <polygon id="Shape_2_copy_17" points="3.09296343 21.460863 5.32406461 28.6951424 12.7950786 22.3735863 3.09296343 21.460863"></polygon>
                    <polygon id="Shape_2_copy_18" points="9.21138391 8.31006588 5.68471512 14.992889 15.4299851 15.8165285 9.21138391 8.31006588"></polygon>
                    <polygon id="Shape_2_copy_19" points="15.6090773 5.56511478 21.9229272 13.043835 22.8304102 3.33524659"></polygon>
                    <polygon id="Shape_2_copy_20" points="29.3051657 5.93131376 28.4815263 15.680591 35.9858311 9.45921554"></polygon>
                    <polygon id="Shape_2_copy_21" points="38.731707 15.8575255 31.253295 22.1710671 40.9612669 23.0776254"></polygon>
                    <polygon id="Shape_2_copy_22" points="28.6153061 28.7308992 34.8363732 36.2345875 38.3661245 29.5533056 28.6153061 28.7308992"></polygon>
                    <polygon id="Shape_2_copy_23" points="22.1254464 31.5008184 21.2188881 41.2081738 28.440221 38.9792304 22.1254464 31.5008184"></polygon>
                    <g id="Group" transform="translate(52.710459, 10.480442)" fill-rule="nonzero">
                        <path d="M6.70933247,20.2460565 C5.7617772,20.2460565 4.89035926,20.0694302 4.0947704,19.7164859 C3.29948979,19.3635416 2.61332908,18.8718856 2.03690476,18.2415178 C1.46048044,17.6114583 1.01105442,16.8630314 0.689551444,15.995929 C0.36774022,15.1288265 0.206834608,14.1769557 0.206834608,13.1403167 L0.206834608,12.5635842 C0.206834608,11.4464923 0.374213435,10.4342049 0.709587583,9.52703017 C1.04465348,8.61985542 1.49839498,7.84676869 2.07050382,7.20746172 C2.64230442,6.568463 3.30164753,6.07464922 4.04791666,5.7260204 C4.79418579,5.37739157 5.58299318,5.20323128 6.41433885,5.20323128 C7.33476827,5.20323128 8.15285925,5.36845237 8.86768705,5.69920279 C9.58282311,6.02995322 10.1839073,6.49016793 10.6709396,7.08015517 C11.1582802,7.67014241 11.5269451,8.37171554 11.7772427,9.1851828 C12.0275404,9.99834181 12.1526892,10.8879464 12.1526892,11.8530718 L12.1526892,12.8317602 L1.8023278,12.8317602 L1.8023278,13.1403167 C1.8023278,13.9355973 1.92285289,14.6843324 2.1642113,15.3859056 C2.40556972,16.0874787 2.74525935,16.6975021 3.18328018,17.2159757 C3.62099276,17.7344494 4.14409013,18.1434949 4.75164752,18.442804 C5.35951317,18.7421131 6.03426869,18.8919217 6.77622235,18.8919217 C7.63438561,18.8919217 8.39175168,18.7356398 9.04893705,18.4227678 C9.70581418,18.1098958 10.3022746,17.6093006 10.8386267,16.9209821 L11.8441326,17.6851296 C11.6027742,18.0337585 11.3235012,18.3645089 11.0063138,18.6773809 C10.688818,18.9902529 10.320153,19.2627444 9.90031885,19.4951636 C9.48017642,19.7275829 9.00639879,19.9109906 8.47898595,20.0450786 C7.95157311,20.1788584 7.36158587,20.2460565 6.70933247,20.2460565 L6.70933247,20.2460565 Z M6.41433885,6.57062073 C5.8064732,6.57062073 5.24330356,6.68683034 4.72513817,6.91924956 C4.20666453,7.15166878 3.74860756,7.4824192 3.35065901,7.91150083 C2.9530187,8.34058246 2.626892,8.85659012 2.37197066,9.45983204 C2.11735756,10.0633822 1.94535501,10.7313563 1.85596301,11.4643707 L10.557196,11.4643707 L10.557196,11.2899022 C10.5393176,10.6823448 10.4409864,10.0945153 10.2622024,9.52703017 C10.0834183,8.95954505 9.82202379,8.45679207 9.47771044,8.01877124 C9.13370534,7.58075041 8.70678144,7.22996384 8.19755525,6.9661033 C7.68802082,6.70255101 7.0937181,6.57062073 6.41433885,6.57062073 L6.41433885,6.57062073 Z" id="Shape"></path>
                        <path d="M14.3914966,12.509949 C14.3914966,11.4554315 14.5456207,10.4810586 14.8541773,9.58744683 C15.1624256,8.69352677 15.5982887,7.92259777 16.1614583,7.27465985 C16.7243197,6.62641368 17.4036989,6.11934522 18.1992878,5.752838 C18.9945684,5.38633077 19.8795493,5.20323128 20.8539221,5.20323128 C21.8458652,5.20323128 22.741943,5.38633077 23.5418473,5.752838 C24.3420599,6.11934522 25.0235969,6.62641368 25.5864583,7.27465985 C26.1496279,7.92259777 26.5833333,8.69352677 26.8869578,9.58744683 C27.1908907,10.4810586 27.3428571,11.4554315 27.3428571,12.509949 L27.3428571,12.9525935 C27.3428571,14.0071109 27.1908907,14.9814838 26.8869578,15.8754039 C26.5833333,16.7690157 26.1496279,17.5399447 25.5864583,18.1881909 C25.0235969,18.8361288 24.3442176,19.3410395 23.5486288,19.702923 C22.7533482,20.0651147 21.8637436,20.2460565 20.8807397,20.2460565 C19.8974277,20.2460565 19.0081313,20.0651147 18.2125425,19.702923 C17.4172619,19.3410395 16.7357249,18.8361288 16.1679315,18.1881909 C15.6004464,17.5399447 15.1624256,16.7690157 14.8541773,15.8754039 C14.5456207,14.9814838 14.3914966,14.0071109 14.3914966,12.9525935 L14.3914966,12.509949 L14.3914966,12.509949 Z M16.0005527,12.9525935 C16.0005527,13.7478741 16.1078231,14.5055484 16.3223639,15.225 C16.5365965,15.9444515 16.8494685,16.5748193 17.2606717,17.1154868 C17.671875,17.6561543 18.1814094,18.0873937 18.789275,18.4092049 C19.3968324,18.7310161 20.0940901,18.8919217 20.8807397,18.8919217 C21.6670812,18.8919217 22.3621811,18.7310161 22.965423,18.4092049 C23.5686649,18.0873937 24.0760416,17.6561543 24.4872448,17.1154868 C24.8984481,16.5748193 25.2113201,15.9444515 25.4255527,15.225 C25.6400935,14.5055484 25.7473639,13.7478741 25.7473639,12.9525935 L25.7473639,12.509949 C25.7473639,11.7325467 25.6400935,10.9838116 25.4255527,10.2643601 C25.2113201,9.54490857 24.8984481,8.91238306 24.4872448,8.36740007 C24.0760416,7.82210883 23.5643494,7.38624573 22.9521683,7.06011903 C22.3396789,6.73368408 21.6402636,6.57062073 20.8539221,6.57062073 C20.0762117,6.57062073 19.3857355,6.73368408 18.7824936,7.06011903 C18.1792517,7.38624573 17.671875,7.82210883 17.2606717,8.36740007 C16.8494685,8.91238306 16.5365965,9.54490857 16.3223639,10.2643601 C16.1078231,10.9838116 16.0005527,11.7325467 16.0005527,12.509949 L16.0005527,12.9525935 L16.0005527,12.9525935 Z" id="Shape"></path>
                        <path d="M39.3423468,16.2909226 C39.3423468,15.995929 39.2908694,15.7009353 39.1882227,15.4059417 C39.0852678,15.1109481 38.8932291,14.8316751 38.6117984,14.5681228 C38.3300594,14.3045705 37.9367346,14.0585884 37.4318239,13.8307929 C36.9269132,13.6026892 36.2721938,13.403869 35.4676657,13.2340242 C34.6631377,13.0641794 33.9458439,12.867517 33.3157844,12.644037 C32.6857248,12.4205569 32.1539965,12.1502232 31.7202912,11.8330357 C31.2868941,11.5158482 30.9583014,11.1379358 30.7348214,10.7002232 C30.5116496,10.2622024 30.3997555,9.74835244 30.3997555,9.1583652 C30.3997555,8.62201316 30.5181228,8.11247872 30.7551657,7.62976189 C30.9919004,7.1473533 31.3315901,6.72721087 31.7739264,6.36964284 C32.2165709,6.01207482 32.7526147,5.72817813 33.3829825,5.51826104 C34.013042,5.3080357 34.7213966,5.20323128 35.5080463,5.20323128 C36.3480229,5.20323128 37.1010735,5.31265943 37.7668898,5.53151572 C38.4330144,5.75068026 38.996184,6.05461308 39.4563987,6.44331419 C39.9166134,6.83201529 40.2674,7.29007226 40.5087584,7.8174851 C40.7501168,8.34489794 40.8709502,8.91700678 40.8709502,9.53381163 L39.261894,9.53381163 C39.261894,9.1583652 39.1792835,8.79185797 39.0137542,8.43428995 C38.8485331,8.07672192 38.6071747,7.76169216 38.2899872,7.48920066 C37.9724914,7.21640092 37.5794748,6.99538689 37.1100127,6.82554208 C36.6408588,6.65569726 36.1066645,6.57062073 35.5080463,6.57062073 C34.8823022,6.57062073 34.3481079,6.64675806 33.9057716,6.79872447 C33.4634353,6.95069089 33.1012435,7.1473533 32.8198128,7.38840347 C32.5380739,7.62976189 32.3327805,7.90009565 32.203008,8.19971299 C32.0735437,8.49902209 32.0085033,8.80079717 32.0085033,9.10473 C32.0085033,9.42654122 32.0578231,9.71906886 32.1561543,9.9829294 C32.2544855,10.2464817 32.4443664,10.4921556 32.7257971,10.7202593 C33.0075361,10.9480548 33.4008609,11.1582802 33.9057716,11.3503189 C34.4106823,11.5426658 35.0700254,11.7325467 35.8831844,11.92027 C36.7592261,12.1258716 37.5144344,12.3536671 38.1491177,12.6039647 C38.7838009,12.8542623 39.3087478,13.1514137 39.7245747,13.4954188 C40.1400934,13.8397321 40.4483417,14.2330569 40.6496279,14.6753932 C40.8506058,15.1177296 40.9510947,15.6294217 40.9510947,16.2104698 C40.9510947,16.8093962 40.8262542,17.3568452 40.5759565,17.8528167 C40.3256589,18.3487882 39.9680909,18.7735544 39.5032525,19.1264987 C39.038414,19.4797512 38.4752444,19.7544005 37.8140518,19.9510629 C37.1525509,20.1477253 36.415221,20.2460565 35.6017537,20.2460565 C34.6810161,20.2460565 33.8678571,20.1276892 33.1616602,19.8906462 C32.4554634,19.6539115 31.8611606,19.334258 31.3784438,18.931994 C30.895727,18.5300382 30.5316857,18.0673575 30.2857036,17.5445684 C30.0400297,17.021471 29.9170386,16.4786458 29.9170386,15.9154762 L31.5260947,15.9154762 C31.5618515,16.487585 31.7091942,16.9635204 31.968431,17.3432823 C32.2276679,17.7233524 32.5494791,18.0272852 32.9338647,18.2550807 C33.3179421,18.4828762 33.744866,18.6462478 34.2140199,18.744579 C34.6834821,18.8429102 35.1458545,18.8919217 35.6017537,18.8919217 C36.2096194,18.8919217 36.7459714,18.8204081 37.2105016,18.6773809 C37.67534,18.5343537 38.0665071,18.342315 38.3836946,18.1009566 C38.7011904,17.8595982 38.9400828,17.582483 39.1009884,17.2696109 C39.261894,16.9567389 39.3423468,16.6306122 39.3423468,16.2909226 L39.3423468,16.2909226 Z" id="Path"></path>
                        <path d="M44.2092792,19.9778805 L44.2092792,0.457132227 L50.2154973,0.457132227 C51.5295598,0.457132227 52.7338859,0.682769981 53.8287839,1.13404549 C54.9236818,1.585321 55.8622979,2.22000425 56.6443238,3.03778698 C57.4263498,3.85587797 58.0363732,4.83672405 58.474394,5.98063349 C58.9124148,7.12485117 59.1312711,8.39421767 59.1312711,9.78842472 L59.1312711,10.6734056 C59.1312711,12.0676126 58.9145726,13.3345131 58.4811755,14.4741071 C58.0477784,15.6140093 57.435289,16.5926977 56.6443238,17.4104804 C55.8533587,18.2282631 54.9082694,18.8607886 53.8087478,19.3074404 C52.7092261,19.7544005 51.4981185,19.9778805 50.1754251,19.9778805 L44.2092792,19.9778805 L44.2092792,19.9778805 Z M48.231303,3.71500849 L48.231303,16.7468218 L50.1754251,16.7468218 C51.7662945,16.7468218 52.9774021,16.2215667 53.8087478,15.1713648 C54.6400934,14.1211628 55.0556121,12.6218431 55.0556121,10.6734056 L55.0556121,9.76160712 C55.0556121,7.77741282 54.6444089,6.27346937 53.8223107,5.25008502 C52.9999042,4.22670067 51.7977359,3.71500849 50.2154973,3.71500849 L48.231303,3.71500849 Z" id="Shape"></path>
                        <path d="M72.7934522,15.9558567 L65.7410394,15.9558567 L64.4004675,19.9778805 L60.1235224,19.9778805 L67.3901678,0.457132227 L71.1175062,0.457132227 L78.4245321,19.9778805 L74.147587,19.9778805 L72.7934522,15.9558567 Z M66.8269981,12.6976722 L71.7074935,12.6976722 L69.253837,5.39095449 L66.8269981,12.6976722 L66.8269981,12.6976722 Z" id="Shape"></path>
                        <path d="M95.290646,13.4753826 C95.2191324,14.4676339 94.9956524,15.3791241 94.620206,16.2104698 C94.2447596,17.0418154 93.7265942,17.7544855 93.0650933,18.3487882 C92.4035925,18.9433992 91.6015304,19.4082376 90.6585989,19.7433035 C89.7153591,20.0783694 88.6408055,20.2460565 87.4340134,20.2460565 C86.1828336,20.2460565 85.058652,20.0293579 84.0620853,19.5956526 C83.0655185,19.1622555 82.2209182,18.5389774 81.5282843,17.7255102 C80.8353421,16.9120429 80.3036138,15.9265731 79.9327911,14.7691007 C79.5616601,13.6116284 79.3764029,12.3135948 79.3764029,10.8743835 L79.3764029,9.58744683 C79.3764029,8.14823553 79.5684416,6.84773595 79.9528272,5.68594812 C80.3372128,4.52385203 80.8800381,3.53622448 81.5819195,2.72275722 C82.2834926,1.90959821 83.1348744,1.28385416 84.1357566,0.845833331 C85.1369471,0.407812499 86.2540389,0.188956207 87.4876486,0.188956207 C88.7033799,0.188956207 89.7779335,0.360958758 90.7122341,0.704963859 C91.6462264,1.04927721 92.4393493,1.52737032 93.0919109,2.13955144 C93.7444726,2.75173256 94.2536988,3.48043154 94.620206,4.32503188 C94.9867132,5.16963222 95.2191324,6.0879039 95.3174636,7.08015517 L91.2954398,7.08015517 C91.2507438,6.49910713 91.1499466,5.98525721 90.9936648,5.53829718 C90.8370746,5.09133715 90.6114369,4.71589072 90.3164432,4.41226615 C90.0217579,4.10833332 89.6416877,3.87807184 89.1768493,3.72178996 C88.7123191,3.56519982 88.1491495,3.48690475 87.4876486,3.48690475 C86.1291984,3.48690475 85.1169109,3.98102678 84.4507864,4.96865433 C83.78497,5.95628187 83.4520619,7.48673468 83.4520619,9.56062923 L83.4520619,10.8743835 C83.4520619,11.8845132 83.5257332,12.7691858 83.6733842,13.5290178 C83.8207268,14.2888499 84.0531461,14.9235331 84.3703336,15.4327593 C84.6878293,15.9422938 85.0990325,16.3245216 85.6039433,16.5791347 C86.108854,16.8340561 86.7188774,16.9613626 87.4340134,16.9613626 C88.0686967,16.9613626 88.6161456,16.889849 89.0763603,16.7468218 C89.536575,16.6037946 89.9209607,16.3870961 90.2295172,16.0964179 C90.5377655,15.806048 90.7769662,15.4416985 90.946811,15.0036777 C91.1166558,14.5659651 91.2239262,14.0564307 91.2686222,13.4753826 L95.290646,13.4753826 L95.290646,13.4753826 Z" id="Path"></path>
                    </g>
                </g>
            </g>
        </g>
    </g>
</svg>